<svg width="800" height="400" viewBox="0 0 800 400" fill="none" xmlns="http://www.w3.org/2000/svg">
  <rect width="800" height="400" fill="#1e293b"/>
  <rect x="260" y="140" width="280" height="120" rx="8" fill="#334155"/>
  <path d="M370 190C370 179 379 170 390 170H410C421 170 430 179 430 190V210C430 221 421 230 410 230H390C379 230 370 221 370 210V190Z" stroke="#94A3B8" stroke-width="2"/>
  <path d="M370 190L390 210L410 190L430 210" stroke="#94A3B8" stroke-width="2"/>
  <circle cx="410" cy="180" r="5" fill="#94A3B8"/>
  <rect x="300" y="260" width="200" height="12" rx="6" fill="#475569"/>
  <rect x="340" y="280" width="120" height="8" rx="4" fill="#334155"/>
</svg> 