<svg width="256" height="256" viewBox="0 0 256 256" fill="none" xmlns="http://www.w3.org/2000/svg">
  <path d="M128.001 0C57.317 0 0.001 57.307 0.001 128C0.001 198.693 57.317 256 128.001 256C198.685 256 256.001 198.693 256.001 128C256.001 57.307 198.685 0 128.001 0ZM223.128 31.542L218.521 57.977H154.128V58.002H112.695V19.387H152.486V0.004H57.317L55.674 15.838L161.222 109.322L169.878 19.387H198.357V31.542H223.128ZM19.065 105.422L112.696 85.9V19.387H19.065V105.422ZM112.696 209.455L19.065 124.031V236.613H112.696V209.455ZM132.485 209.455L128.001 213.657L123.517 209.455V129.317L19.065 236.614H152.486V190.003V188.981H218.521V190.003V236.614H236.937L132.485 141.808V209.455Z" fill="#1572B6"/>
</svg> 