<svg width="256" height="256" viewBox="0 0 256 256" fill="none" xmlns="http://www.w3.org/2000/svg">
  <path d="M251.172 116.594L139.4 4.828C132.6 -1.94 121.4 -1.94 114.6 4.828L91.198 28.196L120.398 57.396C127.8 54.996 136.2 56.797 142 62.597C147.8 68.430 149.599 76.831 147.198 84.198L175.198 112.198C182.598 109.798 191 111.598 196.8 117.397C204.2 124.797 204.2 136.797 196.8 144.197C189.4 151.597 177.4 151.597 170 144.197C163.8 137.997 162.2 128.797 165.6 121.197L139.6 95.198L139.6 162.798C141.6 163.798 143.4 165.198 145 166.798C152.4 174.198 152.4 186.198 145 193.598C137.6 200.998 125.6 200.998 118.2 193.598C110.8 186.198 110.8 174.198 118.2 166.798C120 164.998 122.2 163.598 124.4 162.598V94.398C122.2 93.398 120 91.998 118.2 90.198C111.8 83.998 110.2 74.798 113.6 67.198L84.998 38.598L4.83998 118.798C-1.96002 125.598 -1.96002 136.797 4.83998 143.598L116.6 255.398C123.4 262.198 134.6 262.198 141.4 255.398L251.2 145.598C257.972 138.797 257.972 127.394 251.172 116.594V116.594Z" fill="#F03C2E"/>
</svg> 