<svg width="256" height="256" viewBox="0 0 256 256" fill="none" xmlns="http://www.w3.org/2000/svg">
  <path d="M23.1941 163.8L128 224.024L232.806 163.8V92.2L128 32L23.1941 92.2V163.8Z" fill="#E10098" fill-opacity="0.15"/>
  <path d="M232.806 163.8L128 224.024L23.1941 163.8M232.806 163.8V92.2M232.806 163.8L232.782 163.788M128 224.024V152.4M23.1941 163.8V92.2M23.1941 163.8L23.218 163.788M232.782 163.788L128 103.576L23.218 163.788M232.782 163.788V92.212M23.218 163.788V92.212M232.782 92.212L128 32.024L23.218 92.212M232.782 92.212L232.806 92.2M23.218 92.212L23.1941 92.2M128 32.024V103.6" stroke="#E10098" stroke-width="10"/>
  <circle cx="23.2" cy="92.2" r="9" fill="#E10098"/>
  <circle cx="23.2" cy="163.8" r="9" fill="#E10098"/>
  <circle cx="128" cy="32" r="9" fill="#E10098"/>
  <circle cx="128" cy="224" r="9" fill="#E10098"/>
  <circle cx="232.8" cy="92.2" r="9" fill="#E10098"/>
  <circle cx="232.8" cy="163.8" r="9" fill="#E10098"/>
  <circle cx="128" cy="103.6" r="9" fill="#E10098"/>
  <circle cx="177.259" cy="73.9019" r="9" fill="#E10098"/>
  <circle cx="78.7407" cy="73.9019" r="9" fill="#E10098"/>
  <circle cx="78.7407" cy="182.098" r="9" fill="#E10098"/>
  <circle cx="177.259" cy="182.098" r="9" fill="#E10098"/>
</svg> 