<svg width="256" height="256" viewBox="0 0 256 256" fill="none" xmlns="http://www.w3.org/2000/svg">
  <path d="M255.555 70.496L232.889 227.499L128.001 255.999L23.1109 227.499L0.444946 70.496H255.555Z" fill="#E44D26"/>
  <path d="M128 240.013L213.941 216.475L232.881 85.963H128V240.013Z" fill="#F16529"/>
  <path d="M82.132 146.309H128V120.309H54.936L55.532 127.103L61.871 198.307H128V172.307H84.535L82.132 146.309Z" fill="#EBEBEB"/>
  <path d="M90.018 89.963H128V63.963H61.872L62.467 70.756L68.805 141.964H128V115.964H92.42L90.018 89.963Z" fill="#EBEBEB"/>
  <path d="M128 198.307L127.944 198.322L94.13 189.643L92.252 168.308H66.192L69.871 210.112L127.942 225.989L128 225.973V198.307Z" fill="#EBEBEB"/>
  <path d="M127.998 146.311V172.31H168.098L165.272 198.621L127.998 207.299V234.963L186.185 219.096L186.58 214.578L192.571 147.118L193.179 140.312H127.998V146.311Z" fill="white"/>
  <path d="M128 89.963V115.963H201.998L202.493 110.307L203.603 97.754L204.19 89.963H128Z" fill="white"/>
  <path d="M128 63.962V89.962H202.998L203.493 84.307L204.603 71.754L205.19 63.962H128Z" fill="white"/>
</svg> 