<svg width="256" height="256" viewBox="0 0 256 256" fill="none" xmlns="http://www.w3.org/2000/svg">
  <rect width="256" height="256" fill="#F7DF1E"/>
  <path d="M67.312 213.932L86.902 202.076C91.126 209.572 95.350 217.068 104.394 217.068C113.438 217.068 118.854 213.932 118.854 199.666V117.982H142.926V199.666C142.926 224.858 127.752 236.716 105.08 236.716C84.6 236.716 72.742 225.944 67.312 213.932Z" fill="black"/>
  <path d="M152.336 211.354L171.926 200.038C177.908 209.77 185.682 217.158 196.862 217.158C206.396 217.158 212.38 212.446 212.38 205.892C212.38 197.86 205.896 195.11 194.716 189.936L188.676 187.186C171.354 179.154 159.426 168.952 159.426 149.418C159.426 131.47 172.996 118.002 195.88 118.002C212.582 118.002 224.5 124.556 232.8 141.028L214.186 153.056C209.412 144.556 204.142 141.028 195.88 141.028C187.35 141.028 182.516 145.938 182.516 153.056C182.516 161.854 187.35 164.604 197.848 169.38L203.888 172.13C224.558 181.738 236.486 191.508 236.486 211.624C236.486 233.228 220.106 240.97 197.59 240.97C175.526 240.97 159.73 228.414 152.336 211.354Z" fill="black"/>
</svg> 