<svg width="256" height="256" viewBox="0 0 256 256" fill="none" xmlns="http://www.w3.org/2000/svg">
  <rect width="256" height="256" fill="#FFFFFF"/>
  <path d="M160 36H96L64 91.32L96 146.64H160L192 91.32L160 36Z" fill="#10A37F"/>
  <path d="M136 109.32L160 146.64L184 109.32L160 72H136L112 109.32L136 146.64L160 184L184 146.64L208 109.32L184 72L160 36" stroke="#0A6B53" stroke-width="4"/>
  <path d="M120 109.32L96 146.64L72 109.32L96 72H120L144 109.32L120 146.64L96 184L72 146.64L48 109.32L72 72L96 36" stroke="#0A6B53" stroke-width="4"/>
  <path d="M72 109.32L96 146.64H120L144 109.32L120 72H96L72 109.32Z" fill="#10A37F"/>
  <path d="M184 109.32L160 146.64H136L112 109.32L136 72H160L184 109.32Z" fill="#10A37F"/>
  <circle cx="128" cy="182" r="30" fill="#ABEBDD"/>
  <circle cx="128" cy="182" r="14" fill="#10A37F"/>
</svg> 