<svg width="256" height="256" viewBox="0 0 256 256" fill="none" xmlns="http://www.w3.org/2000/svg">
  <rect width="256" height="256" fill="white"/>
  <path d="M128 214.4C175.67 214.4 214.4 175.67 214.4 128C214.4 80.3304 175.67 41.6 128 41.6C80.3304 41.6 41.6 80.3304 41.6 128C41.6 175.67 80.3304 214.4 128 214.4Z" fill="#018BFF"/>
  <path d="M66.79 189.21C40.46 162.88 40.46 120.11 66.79 93.78L128 32.56L189.21 93.78C215.54 120.11 215.54 162.88 189.21 189.21L128 250.42L66.79 189.21Z" stroke="#018BFF" stroke-width="12"/>
  <path d="M128 171.88C152.64 171.88 172.56 151.96 172.56 127.32C172.56 102.68 152.64 82.76 128 82.76C103.36 82.76 83.44 102.68 83.44 127.32C83.44 151.96 103.36 171.88 128 171.88Z" fill="white"/>
  <circle cx="128" cy="76" r="12" fill="#018BFF"/>
  <circle cx="79" cy="143" r="12" fill="#018BFF"/>
  <circle cx="177" cy="143" r="12" fill="#018BFF"/>
</svg> 