<svg width="256" height="256" viewBox="0 0 256 256" fill="none" xmlns="http://www.w3.org/2000/svg">
  <path d="M128 0C57.344 0 0 57.344 0 128C0 198.656 57.344 256 128 256C198.656 256 256 198.656 256 128C256 57.344 198.656 0 128 0ZM71.1 190.744V97.4H99.316L151.116 170.972V97.4H179.284V190.744H151.068L99.244 117.172V190.744H71.1ZM211.824 166.128L228.844 190.744C205.88 209.732 166.764 215.384 131.996 196.348C101.272 179.444 84.344 149.064 86.516 115.768L110.488 149.8C111.4 179.84 131.516 193.724 150.692 196.8C172.696 200.284 197.728 192.164 211.824 166.128Z" fill="black"/>
</svg> 