<svg xmlns="http://www.w3.org/2000/svg" viewBox="0 0 500 400" width="300" height="240">
  <!-- Monitor base -->
  <path d="M250,350 L200,320 L300,320 Z" stroke="#000" stroke-width="2" fill="#000"/>
  <rect x="150" y="320" width="200" height="10" fill="#000"/>
  
  <!-- Monitor -->
  <rect x="100" y="120" width="300" height="200" rx="10" ry="10" stroke="#000" stroke-width="3" fill="none"/>
  
  <!-- Document 1 -->
  <rect x="130" y="150" width="120" height="140" rx="5" ry="5" stroke="#000" stroke-width="2" fill="none"/>
  <line x1="150" y1="170" x2="230" y2="170" stroke="#000" stroke-width="2"/>
  <line x1="150" y1="190" x2="230" y2="190" stroke="#000" stroke-width="2"/>
  <line x1="150" y1="210" x2="230" y2="210" stroke="#000" stroke-width="2"/>
  <line x1="150" y1="230" x2="230" y2="230" stroke="#000" stroke-width="2"/>
  <line x1="150" y1="250" x2="200" y2="250" stroke="#000" stroke-width="2"/>
  
  <!-- Document 2 (behind) -->
  <path d="M120,140 Q120,130 130,130 L220,130 Q230,130 230,140 L230,160 L120,160 Z" stroke="#000" stroke-width="2" fill="none"/>
  <line x1="140" y1="145" x2="210" y2="145" stroke="#000" stroke-width="2"/>
  
  <!-- Clock -->
  <circle cx="330" cy="160" r="40" stroke="#000" stroke-width="3" fill="none"/>
  <line x1="330" y1="160" x2="330" y2="135" stroke="#000" stroke-width="2"/>
  <line x1="330" y1="160" x2="350" y2="170" stroke="#000" stroke-width="2"/>
  <circle cx="330" cy="160" r="3" fill="#000"/>
  
  <!-- Magnifying glass with gear -->
  <circle cx="290" cy="240" r="20" stroke="#000" stroke-width="2" fill="none"/>
  <line x1="305" y1="255" x2="320" y2="270" stroke="#000" stroke-width="3"/>
  
  <!-- Gear/sun inside magnifying glass -->
  <circle cx="290" cy="240" r="10" stroke="#000" stroke-width="2" fill="none"/>
  <line x1="290" y1="225" x2="290" y2="230" stroke="#000" stroke-width="2"/>
  <line x1="290" y1="250" x2="290" y2="255" stroke="#000" stroke-width="2"/>
  <line x1="275" y1="240" x2="280" y2="240" stroke="#000" stroke-width="2"/>
  <line x1="300" y1="240" x2="305" y2="240" stroke="#000" stroke-width="2"/>
  <line x1="280" y1="230" x2="275" y2="225" stroke="#000" stroke-width="2"/>
  <line x1="300" y1="230" x2="305" y2="225" stroke="#000" stroke-width="2"/>
  <line x1="280" y1="250" x2="275" y2="255" stroke="#000" stroke-width="2"/>
  <line x1="300" y1="250" x2="305" y2="255" stroke="#000" stroke-width="2"/>
  
  <!-- Decorative elements -->
  <circle cx="80" cy="200" r="5" stroke="#000" stroke-width="2" fill="none"/>
  <circle cx="420" cy="200" r="5" stroke="#000" stroke-width="2" fill="none"/>
  <circle cx="380" cy="140" r="5" stroke="#000" stroke-width="2" fill="none"/>
  <line x1="80" y1="240" x2="80" y2="280" stroke="#000" stroke-width="2" stroke-dasharray="5,5"/>
  <line x1="420" y1="240" x2="420" y2="280" stroke="#000" stroke-width="2" stroke-dasharray="5,5"/>
  <line x1="130" y1="100" x2="150" y2="100" stroke="#000" stroke-width="2" stroke-dasharray="5,5"/>
  <line x1="350" y1="100" x2="370" y2="100" stroke="#000" stroke-width="2" stroke-dasharray="5,5"/>
  <line x1="130" y1="350" x2="150" y2="350" stroke="#000" stroke-width="2" stroke-dasharray="5,5"/>
  <line x1="350" y1="350" x2="370" y2="350" stroke="#000" stroke-width="2" stroke-dasharray="5,5"/>
  
  <!-- X marks -->
  <g stroke="#000" stroke-width="2">
    <line x1="95" y1="135" x2="105" y2="145"/>
    <line x1="105" y1="135" x2="95" y2="145"/>
    
    <line x1="395" y1="135" x2="405" y2="145"/>
    <line x1="405" y1="135" x2="395" y2="145"/>
    
    <line x1="95" y1="295" x2="105" y2="305"/>
    <line x1="105" y1="295" x2="95" y2="305"/>
    
    <line x1="395" y1="295" x2="405" y2="305"/>
    <line x1="405" y1="295" x2="395" y2="305"/>
  </g>
</svg>