<svg width="256" height="256" viewBox="0 0 256 256" fill="none" xmlns="http://www.w3.org/2000/svg">
  <rect width="256" height="256" fill="white"/>
  <path d="M128 32C93.867 32 72.533 49.6 64 84.8C76.8 67.2 91.733 58.7333 108.8 59.4667C118.656 59.8827 125.699 66.9493 133.44 74.7093C146.255 87.568 161.493 102.933 192 102.933C226.133 102.933 247.467 85.3333 256 50.1333C243.2 67.7333 228.267 76.2 211.2 75.4667C201.344 75.0507 194.301 67.984 186.56 60.224C173.745 47.3653 158.507 32 128 32ZM64 102.933C29.867 102.933 8.533 120.533 0 155.733C12.8 138.133 27.733 129.667 44.8 130.4C54.656 130.816 61.699 137.883 69.44 145.643C82.255 158.501 97.493 173.867 128 173.867C162.133 173.867 183.467 156.267 192 121.067C179.2 138.667 164.267 147.133 147.2 146.4C137.344 145.984 130.301 138.917 122.56 131.157C109.745 118.299 94.507 102.933 64 102.933Z" fill="#06B6D4"/>
</svg> 