<svg xmlns="http://www.w3.org/2000/svg" viewBox="0 0 128 128" width="100%" height="100%">
  <path fill="#fff" d="M37.6 30.6L64 15.4l26.4 15.2 26.4 15.2v30.4L90.4 91.4 64 106.6 37.6 91.4 11.2 76.2V45.8l26.4-15.2m5.2 36l21.2 12.2 21.2-12.2-21.2-12.2-21.2 12.2" opacity=".25"/>
  <path fill="#fff" d="M64 106.6L37.6 91.4 11.2 76.2l26.4-15.2L64 76.2v30.4" opacity=".5"/>
  <path fill="#fff" d="M64 106.6V76.2L90.4 61l26.4 15.2L90.4 91.4 64 106.6" opacity=".75"/>
  <path fill="#fff" d="M64 15.4L37.6 30.6l26.4 15.2L90.4 30.6 64 15.4"/>
</svg>