<svg width="256" height="256" viewBox="0 0 256 256" fill="none" xmlns="http://www.w3.org/2000/svg">
  <rect width="256" height="256" fill="#3178C6"/>
  <path d="M56.611 128.849V139.616H80.717V226.169H103.063V139.616H127.168V128.981C127.168 122.861 127.112 118.222 127.031 118.141C126.984 118.011 115.175 117.952 100.769 118.011L74.61 118.152V128.849H56.611Z" fill="white"/>
  <path d="M179.465 118.041C190.437 120.761 198.276 126.298 204.578 135.506C207.619 139.987 211.718 147.764 212.013 150.637C212.07 151.31 201.845 158.059 195.845 161.539C195.593 161.687 194.621 160.471 193.578 158.32C189.479 149.993 185.19 146.265 178.067 144.969C167.264 143.081 159.16 148.912 159.198 159.27C159.198 162.625 159.731 164.642 161.064 167.428C163.64 172.966 168.51 176.432 180.493 182.268C201.369 192.685 211.604 199.625 218.167 209.013C225.358 219.375 227.17 235.92 222.817 248.423C218.041 262.113 205.402 271.88 188.111 275.573C181.367 276.971 169.114 276.874 162.105 275.382C148.145 272.299 135.51 264.133 128.46 252.985C125.418 247.958 119.936 237.338 120.348 236.611C120.507 236.379 121.574 235.729 122.78 235.065C125.086 233.807 131.412 230.386 137.363 227.257L145.817 222.607L147.533 225.475C150.257 230.192 156.614 237.338 160.397 239.966C172.127 247.353 188.749 246.421 196.697 237.978C201.21 233.196 202.885 227.173 201.21 221.021C199.749 215.744 196.177 211.767 187.299 205.931C175.887 198.694 170.78 195.842 163.908 191.062C153.21 183.814 146.161 175.876 142.145 166.496C139.649 160.658 139.015 157.097 139.015 147.882C139.015 138.837 139.585 135.26 142.306 129.191C147.587 117.028 158.627 108.677 173.179 105.594C178.731 104.506 173.938 104.623 179.465 118.041Z" fill="white"/>
</svg> 